<svg width="25" height="25" viewBox="0 0 25 25" fill="none" xmlns="http://www.w3.org/2000/svg">
<path d="M18.5514 13.7622C18.5514 12.5926 17.6033 11.6445 16.4337 11.6445H5.13962C3.97008 11.6445 3.02197 12.5926 3.02197 13.7622V22.5857C3.02197 23.7553 3.97008 24.7034 5.13962 24.7034H16.4337C17.6033 24.7034 18.5514 23.7553 18.5514 22.5857V13.7622Z" fill="#4BB244"/>
<path d="M24.7144 10.2327C24.7144 4.87232 20.3689 0.526855 15.0085 0.526855H10.4202C5.05983 0.526855 0.714355 4.87233 0.714355 10.2327V15.1739C0.714355 16.3435 1.66246 17.2916 2.832 17.2916H19.9497C22.5811 17.2916 24.7144 15.1583 24.7144 12.5269V10.2327Z" fill="#96ED90"/>
<path d="M16.2438 13.7622C16.2438 12.5926 15.2957 11.6445 14.1261 11.6445H2.832C1.66246 11.6445 0.714355 12.5926 0.714355 13.7622V22.5857C0.714355 23.7553 1.66246 24.7034 2.832 24.7034H14.1261C15.2957 24.7034 16.2438 23.7553 16.2438 22.5857V13.7622Z" fill="#96ED90"/>
<path fill-rule="evenodd" clip-rule="evenodd" d="M9.39555 3.48937C10.4759 3.06544 11.9932 2.67969 13.7554 2.67969C13.9503 2.67969 14.1083 2.8377 14.1083 3.03263C14.1083 3.22755 13.9503 3.38557 13.7554 3.38557C12.094 3.38557 10.6642 3.74981 9.6534 4.14647C9.14757 4.34496 8.75242 4.54932 8.48943 4.71566C8.36258 4.79589 8.27384 4.86265 8.21978 4.91098C8.22001 4.9141 8.22025 4.91728 8.2205 4.92052C8.22542 4.98525 8.23345 5.07392 8.24575 5.18257C8.27036 5.39993 8.3118 5.69517 8.37881 6.03663C8.51337 6.72234 8.74842 7.58073 9.14862 8.36746C9.54949 9.15553 10.1024 9.84528 10.8597 10.2364C11.6069 10.6223 12.6018 10.7426 13.9456 10.3031C14.1309 10.2425 14.3302 10.3435 14.3908 10.5288C14.4514 10.714 14.3504 10.9134 14.1651 10.974C12.6766 11.4609 11.4811 11.3518 10.5358 10.8636C9.60064 10.3806 8.95903 9.55164 8.51946 8.6875C8.07921 7.82203 7.82786 6.89475 7.68614 6.17256C7.54516 5.45417 7.5083 4.91527 7.5083 4.81498C7.5083 4.68357 7.57252 4.58543 7.60265 4.54326C7.64114 4.48939 7.68861 4.44021 7.73563 4.39713C7.83089 4.30983 7.95967 4.2155 8.1121 4.11909C8.41933 3.92477 8.85579 3.70118 9.39555 3.48937Z" fill="#4BB244"/>
<path d="M24.7144 12.7781C24.7144 20.5688 22.5612 23.4501 19.5961 23.4501C17.0017 23.4501 16.5605 21.6473 16.5605 20.9873C16.5605 20.3274 18.2725 18.6694 18.7137 19.9732C18.8725 20.4561 19.2961 20.8424 19.8432 20.6332C20.7433 20.2952 21.0081 16.6895 19.4726 16.6895C16.437 16.6895 18.1842 13.0034 19.1726 11.4904C20.6551 9.22077 24.7144 9.18857 24.7144 12.7781Z" fill="#96ED90"/>
<path d="M20.2144 12.527C19.5809 12.527 19.0674 12.0135 19.0674 11.38C19.0674 10.7465 19.5809 10.2329 20.2144 10.2329C20.8479 10.2329 21.3615 10.7465 21.3615 11.38C21.3615 12.0135 20.8479 12.527 20.2144 12.527Z" fill="#4BB244"/>
</svg>
