<svg width="26" height="30" viewBox="0 0 26 30" fill="none" xmlns="http://www.w3.org/2000/svg">
<path d="M0.305938 1.78467C0.210938 2.08467 0.210938 2.28467 0.210938 2.58467V27.6847C0.210938 27.9847 0.210938 28.1847 0.305938 28.4847L13.701 15.1847L0.305938 1.78467Z" fill="white"/>
<path d="M18.9256 9.9848L3.34553 0.784803C2.77553 0.484803 2.11053 0.284803 1.54053 0.484803L14.9356 13.8848L18.9256 9.9848Z" fill="white"/>
<path d="M24.7207 13.2848L20.5406 10.8848L16.2656 15.1848L20.6356 19.5848L24.7207 17.2848C26.6207 15.9848 25.8607 14.0848 24.7207 13.2848Z" fill="white"/>
<path d="M1.54053 29.7848C2.11053 29.9848 2.77553 29.7848 3.34553 29.4848L18.9256 20.3848L14.9356 16.3848L1.54053 29.7848Z" fill="white"/>
</svg>
