<svg width="27" height="33" viewBox="0 0 27 33" fill="none" xmlns="http://www.w3.org/2000/svg">
<path d="M21.8938 17.6081C21.8938 15.1081 23.2308 12.7081 25.2363 11.4081C23.8993 9.40811 21.7983 8.30811 19.5063 8.20811C17.1188 7.90811 14.7313 9.70811 13.5853 9.70811C12.4393 9.70811 10.4338 8.20811 8.42828 8.30811C5.75428 8.30811 3.27128 9.90811 2.02978 12.3081C-0.739725 17.3081 1.36128 24.7081 4.03528 28.7081C5.37228 30.7081 6.90028 32.9081 8.90578 32.8081C10.9113 32.7081 11.5798 31.5081 13.9673 31.5081C16.3548 31.5081 17.0233 32.8081 19.1243 32.8081C21.2253 32.8081 22.5623 30.8081 23.8993 28.8081C24.8543 27.4081 25.5228 25.8081 26.0958 24.2081C23.5173 23.1081 21.8938 20.5081 21.8938 17.6081ZM17.9783 5.50811C19.1243 4.10811 19.6973 2.20811 19.6018 0.308105C17.7873 0.508106 16.1638 1.40811 15.0178 2.80811C13.8718 4.20811 13.2033 6.00811 13.3943 7.80811C15.1133 7.80811 16.8323 7.00811 17.9783 5.50811Z" fill="white"/>
</svg>
