<svg width="83" height="80" viewBox="0 0 83 80" fill="none" xmlns="http://www.w3.org/2000/svg">
<path d="M1.85547 55.68C1.85547 66.288 7.46922 73.904 17.2933 73.904C26.556 73.904 33.2925 66.56 33.2925 57.856C33.2925 49.152 25.7139 42.352 17.0126 42.352C18.416 31.2 23.7491 21.68 33.5731 14.608V4C11.3988 16.24 1.85547 34.464 1.85547 55.68ZM80.4479 4C58.2736 16.24 48.7303 34.464 48.7303 55.68C48.7303 66.288 54.344 73.904 64.1681 73.904C73.4307 73.904 80.1672 66.56 80.1672 57.856C80.1672 49.152 72.5887 42.352 63.8874 42.352C65.2908 31.2 70.6239 21.68 80.4479 14.608V4Z" fill="#56B84E"/>
</svg>
