<svg width="60" height="60" viewBox="0 0 60 60" fill="none" xmlns="http://www.w3.org/2000/svg">
<path d="M-38.9597 -45.1245H-4.47985L-3.05755 -42.0256H63.0576L64.4799 -45.1245H98.9598V105.125H64.4799L63.0576 102.027H-3.05755L-4.47985 105.125H-38.9597V-45.1245Z" fill="#FF0000"/>
<rect x="13.0457" y="-20.8071" width="33.9661" height="35.6216" fill="white"/>
<rect x="13.0457" y="46.2119" width="33.9661" height="35.6216" fill="white"/>
<path d="M12.9883 1.67725H47.0115V58.3222H12.9883V1.67725ZM30.6378 44.3887L30.3188 38.2716C30.3142 38.171 30.3322 38.0707 30.3715 37.9779C30.4108 37.8852 30.4703 37.8025 30.5458 37.7358C30.6213 37.6692 30.7108 37.6203 30.8077 37.5928C30.9046 37.5653 31.0064 37.5599 31.1056 37.577L37.1944 38.6473L36.3721 36.3791C36.3388 36.2888 36.3345 36.1904 36.3599 36.0976C36.3854 36.0048 36.4392 35.9223 36.5139 35.8617L43.1839 30.4605L41.6812 29.7587C41.5797 29.7108 41.4992 29.6274 41.4548 29.5243C41.4104 29.4212 41.4052 29.3054 41.4402 29.1988L42.7586 25.1443L38.9168 25.9595C38.8127 25.9812 38.7043 25.9662 38.61 25.9171C38.5157 25.868 38.4413 25.7878 38.3993 25.6901L37.6551 23.9394L34.6568 27.1574C34.5882 27.2297 34.4981 27.2778 34.3999 27.2946C34.3016 27.3113 34.2006 27.2958 34.112 27.2502C34.0233 27.2047 33.9518 27.1317 33.9082 27.0421C33.8646 26.9525 33.8512 26.8512 33.87 26.7534L35.316 19.2966L32.9982 20.6363C32.9437 20.6682 32.8834 20.6885 32.8207 20.6962C32.7581 20.7038 32.6946 20.6984 32.6341 20.6805C32.5737 20.6625 32.5175 20.6324 32.4692 20.5918C32.4209 20.5513 32.3814 20.5013 32.3531 20.4449L29.9999 15.8234L27.6466 20.4449C27.6184 20.5013 27.5789 20.5513 27.5305 20.5918C27.4822 20.6324 27.4261 20.6625 27.3656 20.6805C27.3051 20.6984 27.2416 20.7038 27.179 20.6962C27.1164 20.6885 27.056 20.6682 27.0016 20.6363L24.6838 19.2966L26.1297 26.7534C26.1486 26.8512 26.1352 26.9525 26.0915 27.0421C26.0479 27.1317 25.9764 27.2047 25.8878 27.2502C25.7991 27.2958 25.6981 27.3113 25.5999 27.2946C25.5017 27.2778 25.4115 27.2297 25.3429 27.1574L22.3447 23.9394L21.6004 25.6901C21.5585 25.7878 21.484 25.868 21.3897 25.9171C21.2954 25.9662 21.187 25.9812 21.083 25.9595L17.2412 25.1443L18.5596 29.1988C18.5945 29.3054 18.5893 29.4212 18.5449 29.5243C18.5006 29.6274 18.4201 29.7108 18.3186 29.7587L16.8159 30.4605L23.4859 35.8617C23.5606 35.9223 23.6144 36.0048 23.6398 36.0976C23.6652 36.1904 23.661 36.2888 23.6276 36.3791L22.8054 38.6473L28.8941 37.577C28.9934 37.5599 29.0952 37.5653 29.1921 37.5928C29.2889 37.6203 29.3784 37.6692 29.4539 37.7358C29.5294 37.8025 29.589 37.8852 29.6283 37.9779C29.6676 38.0707 29.6855 38.171 29.6809 38.2716L29.3619 44.3887H30.6378Z" fill="white"/>
</svg>
